<svg width="150" height="152" fill="none" xmlns="http://www.w3.org/2000/svg"><path fill-rule="evenodd" clip-rule="evenodd" d="M81.892 135.336C120.083 132.19 150 103.158 150 67.809 150 30.36 116.421 0 75 0S0 30.36 0 67.81c0 35.925 30.902 65.326 69.984 67.659l7.516 15.972 7.577-16.105h-3.185z" fill="#159741"/><path d="M136.068 70.898c0 4.124-1.565 8.208-4.606 12.019-3.041 3.81-7.497 7.272-13.116 10.189-5.619 2.916-12.289 5.23-19.63 6.808-7.341 1.578-15.21 2.39-23.155 2.39-7.946 0-15.814-.812-23.155-2.39-7.341-1.579-14.011-3.892-19.63-6.808-5.619-2.917-10.076-6.379-13.116-10.19-3.041-3.81-4.606-7.894-4.606-12.018h121.014zM16.117 53.557h1.24v-6.672h2.866v-1.112h-6.971v1.112h2.865v6.672zm5.174 0h1.24v-3.336h5.497V49.11h-5.496v-2.224h5.581v-1.112H21.27v4.448l.021 3.336zm18.367 15.3c6.107 0 11.256-5.09 11.256-11.197H39.658v3.113h7.125c-1.138 2.874-3.832 4.91-7.125 4.91-4.431 0-7.725-3.592-7.725-8.023 0-4.431 3.294-8.024 7.725-8.024 2.275 0 4.19.898 5.568 2.395l2.395-2.395c-1.976-1.916-4.67-3.173-7.963-3.173-6.168 0-11.317 5.03-11.317 11.197 0 6.646 4.67 11.197 11.317 11.197zm19.643 0c1.556 0 2.934-.54 3.712-1.377v1.077h3.293V62.33c0-3.892-2.814-6.526-6.706-6.526-3.593 0-6.706 2.933-6.706 6.526 0 3.892 2.635 6.527 6.407 6.527zm.3-3.114c-1.917 0-3.354-1.497-3.354-3.413 0-1.976 1.437-3.413 3.353-3.413 1.976 0 3.353 1.437 3.353 3.413 0 1.916-1.377 3.413-3.353 3.413zm9.943 2.814h3.353v-7.784c0-.958.658-1.556 1.556-1.556h.958v-3.114h-1.197c-2.695 0-4.67 1.916-4.67 4.67v7.784zm14.732.3c3.592 0 6.706-2.934 6.706-6.527V46.762h-3.353v10.12c-1.078-.779-2.276-1.078-3.533-1.078-3.533 0-6.526 2.933-6.526 6.526 0 3.892 2.814 6.527 6.706 6.527zm0-3.114c-1.916 0-3.353-1.497-3.353-3.413 0-1.976 1.437-3.413 3.353-3.413 1.976 0 3.353 1.437 3.353 3.413 0 1.916-1.377 3.413-3.353 3.413zm16.401 3.114a6.471 6.471 0 004.611-1.916l-2.036-2.096c-.898.838-1.497 1.138-2.575 1.138-1.676 0-2.994-1.018-3.413-2.515h10.119V62.33c-.239-4.072-2.814-6.526-6.706-6.526-3.592 0-6.706 2.933-6.706 6.526 0 3.892 2.814 6.527 6.706 6.527zm-3.353-7.964c.48-1.377 1.677-2.395 3.353-2.395 1.737 0 2.934.958 3.413 2.395h-6.766zm12.741 7.664h3.353V62.33c0-1.976 1.437-3.413 3.353-3.413 1.976 0 3.354 1.437 3.354 3.413v6.227h3.353V62.33c0-3.892-2.755-6.526-6.647-6.526-3.413 0-6.766 2.634-6.766 6.526v6.227z" fill="#fff"/><path d="M38.09 95.911h12.813c3.712 0 6.227-2.994 6.227-6.227 0-3.593-2.515-6.227-6.227-6.227h-6.587c-1.856 0-3.113-1.258-3.113-3.114 0-1.856 1.257-3.113 3.113-3.113h10.958v-3.114H43.957c-3.712 0-6.227 2.934-6.227 6.227 0 3.593 2.515 6.227 6.227 6.227h6.586c1.857 0 3.114 1.258 3.114 3.114 0 1.856-1.257 3.113-3.114 3.113H38.09v3.114zm27.77.3c1.558 0 2.935-.54 3.713-1.378v1.078h3.293v-6.227c0-3.892-2.814-6.527-6.706-6.527-3.592 0-6.706 2.934-6.706 6.527 0 3.892 2.635 6.526 6.407 6.526zm.3-3.114c-1.916 0-3.353-1.497-3.353-3.413 0-1.976 1.437-3.413 3.353-3.413 1.976 0 3.353 1.437 3.353 3.413 0 1.916-1.377 3.413-3.353 3.413zm10.648 2.814h3.353V74.116h-3.353v21.795zm13.114.3c1.557 0 2.934-.54 3.713-1.378v1.078h3.293v-6.227c0-3.892-2.814-6.527-6.706-6.527-3.593 0-6.706 2.934-6.706 6.527 0 3.892 2.634 6.526 6.406 6.526zm.3-3.114c-1.916 0-3.353-1.497-3.353-3.413 0-1.976 1.437-3.413 3.353-3.413 1.976 0 3.353 1.437 3.353 3.413 0 1.916-1.377 3.413-3.353 3.413zm16.051 3.113c3.592 0 6.706-2.933 6.706-6.526V74.116h-3.353v10.12c-1.078-.78-2.276-1.079-3.533-1.079-3.533 0-6.527 2.934-6.527 6.527 0 3.892 2.815 6.526 6.707 6.526zm0-3.113c-1.916 0-3.354-1.497-3.354-3.413 0-1.976 1.438-3.413 3.354-3.413 1.975 0 3.353 1.437 3.353 3.413 0 1.916-1.378 3.413-3.353 3.413z" fill="#159741"/></svg>