<svg width="150" height="152" viewBox="0 0 150 152" fill="none" xmlns="http://www.w3.org/2000/svg">
<path fill-rule="evenodd" clip-rule="evenodd" d="M81.8922 135.336C120.083 132.19 150 103.158 150 67.8092C150 30.3592 116.421 0 75 0C33.5786 0 0 30.3592 0 67.8092C0 103.735 30.9017 133.136 69.9845 135.469L77.4995 151.441L85.0772 135.336H81.8922Z" fill="#159741"/>
<path d="M136.068 70.898C136.068 75.0223 134.503 79.1062 131.462 82.9166C128.421 86.727 123.965 90.1892 118.346 93.1055C112.727 96.0218 106.057 98.3352 98.716 99.9135C91.375 101.492 83.5069 102.304 75.561 102.304C67.6151 102.304 59.747 101.492 52.4059 99.9135C45.0649 98.3352 38.3947 96.0218 32.7761 93.1055C27.1575 90.1892 22.7005 86.727 19.6598 82.9166C16.619 79.1062 15.054 75.0223 15.054 70.898L75.561 70.898H136.068Z" fill="white"/>
<path d="M16.1174 53.5573H17.3577V46.8853H20.2232V45.7733H13.2519V46.8853H16.1174V53.5573ZM21.2915 53.5573H22.5318V50.2213H28.0276V49.1093H22.5318V46.8853H28.1131V45.7733H21.2701V50.2213L21.2915 53.5573Z" fill="white"/>
<path d="M39.6576 68.8566C45.765 68.8566 50.9143 63.7671 50.9143 57.6598H39.6576V60.7733H46.7829C45.6452 63.6474 42.9508 65.6832 39.6576 65.6832C35.2267 65.6832 31.9335 62.0906 31.9335 57.6598C31.9335 53.2289 35.2267 49.6363 39.6576 49.6363C41.9329 49.6363 43.8489 50.5345 45.2261 52.0314L47.6211 49.6363C45.6452 47.7203 42.9508 46.4629 39.6576 46.4629C33.4903 46.4629 28.341 51.4925 28.341 57.6598C28.341 64.306 33.0113 68.8566 39.6576 68.8566ZM59.3007 68.8566C60.8575 68.8566 62.2347 68.3177 63.0131 67.4795V68.5573H66.3063V62.3301C66.3063 58.4382 63.4921 55.8036 59.6001 55.8036C56.0075 55.8036 52.894 58.7375 52.894 62.3301C52.894 66.2221 55.5285 68.8566 59.3007 68.8566ZM59.6001 65.7431C57.6841 65.7431 56.247 64.2462 56.247 62.3301C56.247 60.3542 57.6841 58.9172 59.6001 58.9172C61.576 58.9172 62.9532 60.3542 62.9532 62.3301C62.9532 64.2462 61.576 65.7431 59.6001 65.7431ZM69.5436 68.5573H72.8966V60.7733C72.8966 59.8153 73.5553 59.2166 74.4534 59.2166H75.4114V56.103H74.2139C71.5195 56.103 69.5436 58.019 69.5436 60.7733V68.5573ZM84.2757 68.8566C87.8683 68.8566 90.9818 65.9227 90.9818 62.3301V46.7623H87.6288V56.8814C86.551 56.103 85.3535 55.8036 84.0961 55.8036C80.5634 55.8036 77.5696 58.7375 77.5696 62.3301C77.5696 66.2221 80.3837 68.8566 84.2757 68.8566ZM84.2757 65.7431C82.3597 65.7431 80.9226 64.2462 80.9226 62.3301C80.9226 60.3542 82.3597 58.9172 84.2757 58.9172C86.2516 58.9172 87.6288 60.3542 87.6288 62.3301C87.6288 64.2462 86.2516 65.7431 84.2757 65.7431ZM100.677 68.8566C102.474 68.8566 104.09 68.1381 105.288 66.9406L103.252 64.8449C102.354 65.6832 101.755 65.9826 100.677 65.9826C99.0008 65.9826 97.6835 64.9647 97.2644 63.4678H107.383V62.3301C107.144 58.2585 104.569 55.8036 100.677 55.8036C97.0848 55.8036 93.9712 58.7375 93.9712 62.3301C93.9712 66.2221 96.7854 68.8566 100.677 68.8566ZM97.3243 60.8931C97.8033 59.5159 99.0008 58.498 100.677 58.498C102.414 58.498 103.611 59.4561 104.09 60.8931H97.3243ZM110.065 68.5573H113.418V62.3301C113.418 60.3542 114.855 58.9172 116.771 58.9172C118.747 58.9172 120.125 60.3542 120.125 62.3301V68.5573H123.478V62.3301C123.478 58.4382 120.723 55.8036 116.831 55.8036C113.418 55.8036 110.065 58.4382 110.065 62.3301V68.5573Z" fill="white"/>
<path d="M38.0892 95.911H50.9027C54.615 95.911 57.1298 92.9172 57.1298 89.6839C57.1298 86.0913 54.615 83.4567 50.9027 83.4567H44.3163C42.4601 83.4567 41.2027 82.1993 41.2027 80.3432C41.2027 78.487 42.4601 77.2296 44.3163 77.2296H55.2737V74.116H43.957C40.2447 74.116 37.7299 77.05 37.7299 80.3432C37.7299 83.9358 40.2447 86.5703 43.957 86.5703H50.5434C52.3996 86.5703 53.657 87.8277 53.657 89.6839C53.657 91.54 52.3996 92.7974 50.5434 92.7974H38.0892V95.911ZM65.8608 96.2104C67.4175 96.2104 68.7947 95.6715 69.5731 94.8332V95.911H72.8663V89.6839C72.8663 85.7919 70.0521 83.1574 66.1601 83.1574C62.5676 83.1574 59.454 86.0913 59.454 89.6839C59.454 93.5758 62.0886 96.2104 65.8608 96.2104ZM66.1601 93.0968C64.2441 93.0968 62.8071 91.5999 62.8071 89.6839C62.8071 87.708 64.2441 86.2709 66.1601 86.2709C68.1361 86.2709 69.5132 87.708 69.5132 89.6839C69.5132 91.5999 68.1361 93.0968 66.1601 93.0968ZM76.8081 95.911H80.1611V74.116H76.8081V95.911ZM89.9224 96.2104C91.4792 96.2104 92.8563 95.6715 93.6347 94.8332V95.911H96.9279V89.6839C96.9279 85.7919 94.1137 83.1574 90.2218 83.1574C86.6292 83.1574 83.5156 86.0913 83.5156 89.6839C83.5156 93.5758 86.1502 96.2104 89.9224 96.2104ZM90.2218 93.0968C88.3057 93.0968 86.8687 91.5999 86.8687 89.6839C86.8687 87.708 88.3057 86.2709 90.2218 86.2709C92.1977 86.2709 93.5748 87.708 93.5748 89.6839C93.5748 91.5999 92.1977 93.0968 90.2218 93.0968ZM106.273 96.2104C109.865 96.2104 112.979 93.2765 112.979 89.6839V74.116H109.626V84.2351C108.548 83.4567 107.35 83.1574 106.093 83.1574C102.56 83.1574 99.5664 86.0913 99.5664 89.6839C99.5664 93.5758 102.381 96.2104 106.273 96.2104ZM106.273 93.0968C104.357 93.0968 102.919 91.5999 102.919 89.6839C102.919 87.708 104.357 86.2709 106.273 86.2709C108.248 86.2709 109.626 87.708 109.626 89.6839C109.626 91.5999 108.248 93.0968 106.273 93.0968Z" fill="#159741"/>
</svg>
